<svg width="512" height="512" viewBox="0 0 512 512" fill="none" xmlns="http://www.w3.org/2000/svg">
  <defs>
    <linearGradient id="bg" x1="0" y1="0" x2="512" y2="512" gradientUnits="userSpaceOnUse">
      <stop offset="0" stop-color="#222A45"/><stop offset="1" stop-color="#0B0E16"/>
    </linearGradient>
    <linearGradient id="ring" x1="86" y1="86" x2="426" y2="426" gradientUnits="userSpaceOnUse">
      <stop offset="0" stop-color="#C9D2FF"/><stop offset="1" stop-color="#7E92FF"/>
    </linearGradient>
    <linearGradient id="node" x1="180" y1="180" x2="332" y2="332" gradientUnits="userSpaceOnUse">
      <stop offset="0" stop-color="#E2E7FF"/><stop offset="1" stop-color="#8FA2FF"/>
    </linearGradient>
  </defs>
  <rect width="512" height="512" rx="112" fill="url(#bg)"/>
  <g stroke="url(#ring)" stroke-width="16" stroke-linecap="round">
    <line x1="256" y1="44" x2="256" y2="78"/>
    <line x1="256" y1="434" x2="256" y2="468"/>
    <line x1="44" y1="256" x2="78" y2="256"/>
    <line x1="434" y1="256" x2="468" y2="256"/>
  </g>
  <circle cx="256" cy="256" r="170" fill="none" stroke="url(#ring)" stroke-width="16"/>
  <g stroke="url(#node)" stroke-width="11" stroke-linecap="round" opacity="0.92">
    <line x1="256" y1="256" x2="256" y2="184"/>
    <line x1="256" y1="256" x2="196" y2="312"/>
    <line x1="256" y1="256" x2="316" y2="312"/>
    <line x1="256" y1="184" x2="196" y2="312"/>
    <line x1="256" y1="184" x2="316" y2="312"/>
    <line x1="196" y1="312" x2="316" y2="312"/>
  </g>
  <g fill="url(#node)">
    <circle cx="256" cy="256" r="20"/>
    <circle cx="256" cy="184" r="16"/>
    <circle cx="196" cy="312" r="16"/>
    <circle cx="316" cy="312" r="16"/>
  </g>
</svg>
